<svg xmlns="http://www.w3.org/2000/svg" width="384pt" height="384pt" viewBox="0 0 384 384" version="1.1" class="iconadda">
<g>
<g id="Open_Book_free_icon_Xp7jM8K-0"><path style=" stroke:none;fill-rule:nonzero;fill:#f6a872;fill-opacity:1;" d="M 384 95.164062 L 384 294 C 384 303.894531 375.972656 311.921875 366.078125 311.921875 L 217.824219 311.921875 C 216.441406 311.921875 215.117188 312.46875 214.136719 313.445312 C 213.160156 314.421875 212.609375 315.746094 212.609375 317.128906 L 212.609375 317.136719 C 212.609375 318.519531 212.058594 319.847656 211.082031 320.824219 C 210.101562 321.800781 208.777344 322.347656 207.394531 322.34375 L 176.605469 322.34375 C 175.222656 322.347656 173.894531 321.800781 172.917969 320.824219 C 171.9375 319.847656 171.390625 318.519531 171.386719 317.136719 L 171.386719 317.128906 C 171.386719 315.746094 170.839844 314.421875 169.859375 313.445312 C 168.882812 312.46875 167.554688 311.921875 166.171875 311.921875 L 17.921875 311.921875 C 8.027344 311.921875 0 303.894531 0 294 L 0 95.164062 C 0 87.144531 5.277344 80.34375 12.546875 78.066406 C 14.285156 77.515625 16.097656 77.238281 17.921875 77.242188 L 366.078125 77.242188 C 375.96875 77.242188 384 85.273438 384 95.164062 Z M 384 95.164062 " />
</g><g id="Open_Book_free_icon_Xp7jM8K-1"><path style=" stroke:none;fill-rule:nonzero;fill:#df9462;fill-opacity:1;" d="M 235.578125 280.910156 L 293.375 280.910156 L 293.375 311.925781 L 235.578125 311.925781 Z M 179.453125 77.242188 L 179.453125 281.804688 L 12.546875 281.804688 L 12.546875 78.066406 C 14.285156 77.515625 16.097656 77.238281 17.921875 77.242188 Z M 179.453125 77.242188 " />
</g><g id="Open_Book_free_icon_Xp7jM8K-2"><path style=" stroke:none;fill-rule:nonzero;fill:#b2b2b3;fill-opacity:1;" d="M 156.855469 223.933594 C 176.265625 223.933594 192 262.394531 192 281.804688 L 25.089844 281.804688 L 25.089844 223.933594 Z M 358.898438 220.351562 L 358.898438 281.804688 L 192 281.804688 C 192 262.394531 207.726562 220.351562 227.136719 220.351562 Z M 358.898438 220.351562 " />
</g><g id="Open_Book_free_icon_Xp7jM8K-3"><path style=" stroke:none;fill-rule:nonzero;fill:#e5e5e6;fill-opacity:1;" d="M 358.898438 47.125 L 358.898438 246.660156 L 227.136719 246.660156 C 207.726562 246.660156 192 262.394531 192 281.804688 L 192 82.269531 C 192 62.859375 207.726562 47.125 227.136719 47.125 Z M 192 82.269531 L 192 281.804688 C 192 262.394531 176.265625 246.660156 156.855469 246.660156 L 25.089844 246.660156 L 25.089844 47.125 L 156.855469 47.125 C 176.265625 47.125 192 62.859375 192 82.269531 Z M 192 82.269531 " />
</g><g id="Open_Book_free_icon_Xp7jM8K-4"><path style=" stroke:none;fill-rule:nonzero;fill:#e78059;fill-opacity:1;" d="M 167.480469 178.929688 L 70.703125 178.929688 L 70.703125 92.90625 L 57.261719 92.90625 L 57.261719 178.925781 L 43.824219 178.929688 L 43.824219 192.371094 L 57.265625 192.371094 L 57.265625 207.15625 L 70.707031 207.15625 L 70.707031 192.371094 L 167.480469 192.371094 Z M 167.480469 178.929688 " />
</g><g id="Open_Book_free_icon_Xp7jM8K-5"><path style=" stroke:none;fill-rule:nonzero;fill:#5cabd8;fill-opacity:1;" d="M 124.46875 168.175781 C 101.492188 168.175781 82.800781 149.484375 82.800781 126.507812 L 82.800781 119.785156 L 96.242188 119.785156 L 96.242188 126.507812 C 96.242188 142.070312 108.90625 154.734375 124.46875 154.734375 C 140.03125 154.734375 152.695312 142.070312 152.695312 126.507812 L 152.695312 119.785156 L 166.136719 119.785156 L 166.136719 126.507812 C 166.136719 149.484375 147.445312 168.175781 124.46875 168.175781 Z M 124.46875 168.175781 " />
</g><g id="Open_Book_free_icon_Xp7jM8K-6"><path style=" stroke:none;fill-rule:nonzero;fill:#7f7f70;fill-opacity:1;" d="M 233.335938 79.914062 L 326.085938 79.914062 L 326.085938 93.355469 L 233.335938 93.355469 Z M 233.335938 199.535156 L 326.085938 199.535156 L 326.085938 212.976562 L 233.335938 212.976562 Z M 233.335938 169.632812 L 326.085938 169.632812 L 326.085938 183.074219 L 233.335938 183.074219 Z M 233.335938 109.816406 L 326.085938 109.816406 L 326.085938 123.257812 L 233.335938 123.257812 Z M 233.335938 139.730469 L 326.085938 139.730469 L 326.085938 153.171875 L 233.335938 153.171875 Z M 233.335938 139.730469 " />
</g><g id="Open_Book_free_icon_Xp7jM8K-7"><path style=" stroke:none;fill-rule:nonzero;fill:#cccccd;fill-opacity:1;" d="M 178.558594 54.632812 L 178.558594 254.167969 C 186.742188 260.601562 192 270.585938 192 281.804688 L 192 82.269531 C 192 71.050781 186.738281 61.070312 178.558594 54.632812 Z M 178.558594 54.632812 " />
</g><g id="Open_Book_free_icon_Xp7jM8K-8"><path style=" stroke:none;fill-rule:nonzero;fill:#e78059;fill-opacity:1;" d="M 301.441406 336.875 L 272.542969 324.894531 L 243.644531 336.875 L 243.644531 272.839844 L 301.441406 272.839844 Z M 301.441406 336.875 " />
</g><g id="Open_Book_free_icon_Xp7jM8K-9"><path style=" stroke:none;fill-rule:nonzero;fill:#cccccd;fill-opacity:1;" d="M 215.296875 49.171875 C 201.714844 54.035156 192 67.011719 192 82.269531 L 192 281.804688 C 192 266.550781 201.714844 253.570312 215.296875 248.707031 Z M 215.296875 49.171875 " />
</g></g>
</svg>